<mxfile host="Electron" modified="2024-02-15T08:58:51.671Z" agent="Mozilla/5.0 (Windows NT 10.0; Win64; x64) AppleWebKit/537.36 (KHTML, like Gecko) draw.io/21.2.8 Chrome/112.0.5615.165 Electron/24.2.0 Safari/537.36" etag="4mU_gHUctKwZBgE5sXab" version="21.2.8" type="device">
  <diagram name="Page-1" id="2XWkQP5S-hDbL94sL5Vg">
    <mxGraphModel dx="2058" dy="1180" grid="1" gridSize="10" guides="1" tooltips="1" connect="1" arrows="1" fold="1" page="1" pageScale="1" pageWidth="3300" pageHeight="4681" background="#999999" math="0" shadow="0">
      <root>
        <mxCell id="0" />
        <mxCell id="1" parent="0" />
        <mxCell id="APLwThIm-aDqV8bCMrbt-1" value="ApplicationWindow" style="rounded=0;whiteSpace=wrap;html=1;fontSize=25;fillColor=#dae8fc;strokeColor=#6c8ebf;" parent="1" vertex="1">
          <mxGeometry x="1323" y="140" width="657" height="60" as="geometry" />
        </mxCell>
        <mxCell id="k_B8MHVeJ3y0wH1KHS90-1" value="" style="shape=image;verticalLabelPosition=bottom;labelBackgroundColor=default;verticalAlign=top;aspect=fixed;imageAspect=0;image=data:image/png,iVBORw0KGgoAAAANSUhEUgAAAooAAAIMCAYAAABynY1JAAAAAXNSR0IArs4c6QAAAARnQU1BAACxjwv8YQUAAAAJcEhZcwAADsMAAA7DAcdvqGQAAEEMSURBVHhe7d0HYBbl4cfx3/tmJ5BAIOxNAAEZ4l64xVGt1ta9R7FqrbXVVuvEgXVUUal7i9Z/1bbiQOsGBypYETfIkr3DyM77v+dG8iY8Cdlv3uT7SS7v7fXevffLc/fehYYP3zESUWWRqm2c5qr9VK/2fW6jAYPWVwwmGQNtY8W2jfcSQEsW8l+bVbNPNCZLGVfqvYYatGprN7DbV6hyv15jRbvofkLDnKDo1jlqDoh+nfNSpa84V8+lacBKaF3rrynEYA21kTeFbQ+xUvmw1MLFZGbjag01uwatnXoP3HreE3dJKv64vMbKyxgdGIPuflB0AmGVI0hFaPRf3b5qo3Z9WdVz0AZMMUaad0Hjb/20FXH0zrARtTyVP99hxUqqSUzWTr0nGl/vZctbTG/E7t+KP65QDWHRcILi8MoFiVVLEb1fX9XmlqIBc1TPQVveOqhJ86+fhoivdRsLrCG0JZUPYthWvddQ8w8YV6rkpzpqeeto29LC8j9+rVdvVOp36LDh5UedqqWIFY1Vr1Gs3FRJDZ22pwGD1l+llFx7MZnXmKjnkraRFdR2tgMAtVFxqG1G9Z5oTOa22cVm9dRv4KabZEVHt84PhdGB0LB184JitaWIVU9JV2222W4P1avnoA2YYgO0leVsK+Jo7cbZhsB22zQqPtpbuZgsaJtZu82u3mu2QW9J87+fLXE53a5+CDTKg6D3Evyp1J95CQ0dOiwq+0UFQacmMSlJGRnpSk5KVnJKshISEpr0Uz86rsIirlZP888sWw+AWPMOr80tNlOtlzia1VjwY1vTcEZdWlqqwsJCFRUVa+vWrSopLnbae9MMgmP536D9Dk5QdOtMTAuOtE5N+/btldUhS2s3bFZ+QZEKikpUXFzi9xAvvIUEti/YVqrGTbYhoAL/jm1fPKyjWM5ja9uGKi+P7YhR2yWu7mhT3fD1OTolJSYqNSXJqZLVOTtLGzZs1Ka8PGdk3thsYdEPihUh0Vyn2LlzZ6dNWMtXb1BRiw2HwSpqzFWItsm2rQTbFdsRUFl1n7mIn3UTy/lsjdtPxTLVdDTZnuqONrbhG+PIlJyUqG452UpMCGnVqtV+W2fc7si9KZi/YTMLXkg0rxFltm/v1IW1aNmaFhwSgcZS3e5m2lfXDWjLqu4Xwb7C/hI/eK8aV8PWZ6z2HpPxFi9bpZJS7yyy94XmikwY/A1XhESvSNKcbl6+ZoNpGcfYCQCg6QSHtqqftW35s9c7sMYPjpONq37rsyW8CytWr1OHrCw3A0ZnwmCbDru1/vad0S7DvSaxqIiSRLQmZlesrgLQuNrivhVvITHAZ2Djqtv6bClr35Qsrlm/UekZ6W5zkAmDsBguv3ei82q+3Wy+uBIbwYdLbVZddD9V+6/N8Gjdgu0oqAA0P/Y/IF4UFBa5GTBIicFpaPPrliiaDqaVuQWO+XZz7NX04WLrFnwg8aHUukW/z9FVtKrNAGLLtp+2Nnzu1B7bQn0Fe1JTTKGgsFgpKSle2Xh5AaL7q9DgIUP8QsWI+vXtp6/m/WQaqpXZPkNJiV6+rIviklLlbdrqN1VlW2x/RrfRdG8CWrLtve/B9sL2AbRc1X2utxbxuHyxmOfWux1UHIEqlrG6pa3t0SoYvqmPbsNy+2rhooVOXaj8m8/mNTRo8BB3Hkxa7Nevr76et9Q0VuvO227WwNxcv8kueMD00hVryoPplry1uvSyKxQOJ3gtKmnqxUf829420ly7EoCGqe6w2ZrE0zLGYl5b7zZQ+Qjkna2tTm2PVsE4mvroNjS3jxYuXBQVEr0p+l9mqf2b1iErU8N3GFRjNWxIrlsdst8eOnR/r8rp3Kma6TT1oqNtMNsR2xIAoLIbrv2LFv8wV0t//MZamW6mn5bmg7enaa/dd3PrbUc3023GW6/5TY0l+MZzRTas8znkhISwFi1epUlTPtDdz87QPc9N173Pv6/J/3pXC378SflbNmn1yhVutXXzJj31+hy3qou5s2bosQfv8ZsaZvddd3bHZ9x43ZXORjHXrW+oGW+/oqkvTPGb6s4MW3UZzTirtjPza5ahvtMzy26Gb2xmfsy8RVcAgNoXvKB5nHHqSTrkiGM0dPRu1mrswUe4/bQ0l11xje6567bysBjNtDPdLr/yWr9N06lzUHTLbUIJWrBxsxZu2qRFW/O0pHCjfireoOLiMieBOpX/E0hILvXrglKfIBtvm5FNqNmwcaN23Xknv03jueq6m9VzwI5+U92YABcd4vY58EgdddwpflPd/XvqqxqUO8Bv8vTv17dSu3POPEULFi7SzE9nNXh6TeGaCRPd9Wmqx558xg2LZp4b37bbCQC0LOaYF48hsfV/viYkJGj5ypXKy9tkrRYuWuz209J8OPMT/faSy3RvlbAYhETTzfTT1OocFEvLvB0hp1OKQskl2liSp9UFa7Uy33v8S6jKfpLasUDpnW1fYrFvnOefd6beff8DNyw2TehoGR55fIobDANmWWd//kWldvvstYd+mPej39SymRBuwuJZp5/st2kMZhshJAKtRzwGqdporcuFhmn48csEwYucQBiULDZ3SDTqHBSD3eGblT9pwYbl2lCyXvnapKLQZrd9xF8vIX8FZXTYrPR2XrfaMCWJU1953Q2Lxxx1hN/WC1LB6dfgVKc5lby9btGC/gKmhDDoP2gfPQ5TGaa/Qw8+wK1MO1PqafqLnkb0MNGniIP+gm7R0zelhUEYNsv6xZdfVWpnShdnfPixWx89PTOO6HFGT88Ma2tvmPkOupkqKCGNHrdhugWnq037quOpjnnfzN3dA2Y+q06r6ntl6qPnK7rUdvddxzjtviyvHnvwbr8LgPjEP35AXQUliyYgNndINOp16tnId4JhUlqxklKLlZhSpCSncjlJMgiJxg45vZXbofIp1uqYEGFKEs2pVlNCNWanUX4XjyltM2HKnOo0pz2jS69q6mZjAokJYsGpU3Nq1zCnd4N2b7z5jtvfWb/+rVtvKtPezF8095rKJ58pH65jxw6VAo+Zl6CbCVJBEDSlhabU0DDzb4JW1Xam5NHGBMtgnGY9mbBlqgnXXKFfnHCG296sDzMvgRefe6LS6WITyk0QNKfBR40Y7vZjmtev36CjjhznNpv2pnttmPUSTM8EQRP2g2mZdR2Ez+j3yqyPR+6f5Nab+TZhPODN7y1OtxFuFcwvgHhmjg9B1VrF2/LVfl6X/vh1raqateb3vvVxgqJfRmi+3VKH0nM3IDpVUoqpooKi8/5Hjya340C3qg0Tfky4CJhTsdHBwJS2mQBpmAAVXfpWUzcbE1xMuKsqunQrOrRUJwg/wbQNM97oaw2jp2PmywQlw5QWRgcoE7SCdmbeTb/VufOe+/w6b5w7Dt/BDXdmnQVB1syTCX1GML7o4BkERNMuCOWm2Yx7/7F7u801hdWqzHIE0zPDmYAcrEvTHIRPMx/B+jL1QRA1822GN+Oxz+9r5YEWQGvQGgND9DKZ+uiqJavd/PUcMKxW1fa19PXRckSfbg5KFqOvWWw0Jry5Ac7kwSDJRepaoljxxnoh0QuIyeY12QuK3tepKyZQVFys/PwCv7lmJqxEhwvTHASW6sz96lu/bls1dbMxAcWUYgWlYKYEsb6CwFQTE4JMiZq5LvPTWZ+XtzOhqr7XJ65Zu86vq52gfxMwTTgLgmFQ8mnCWm2Z5YjuPyjZDKroMF1fa9au9esAtA7xHhiC411tmGVtyctLeGtpTCA0X2YJTjdHn4ZukrBoUYeg6G9AzkthYb527zxQu3QcpDGZgzU6Y6hGpg1323u9eP2azFhWVqZSp9oeU3JoQkZ0sDCVCS5BiVt0venfhJmg9KymbjYmhNlOT0cHvOhvXi9dtlydO2X7TRWCaUSXfJrxmlOrtWGW2UwnuBbRMO1MaWZ0u9oIhguYeQpOBQcB1IS/gCnBDaZh5tfMdxBYzWtdlsOcajfTDr6Zbeblqj9f6tbXh31+D3fmd6bfBAAtQXS4qm3Qqm1/rV3zrIfS0lJld+zoN22rW7eubj8tTVCSaL7MEn1NYnOHxTpfo2gy39AhvTX+gIM1fr9Ddd6+h+vcfY/WOXv/XDsM6aX09Ax16ZKjbCdUJSUnuUExHN7+xmBKDqNPOwdMSZcpqTJM+DDXs5nSRhNizjn/d257o6ZuNua6QxMKg9JL86UKE/rMNZJBOzPOgLl+0JRwmvZBIA3suPM+7jSD4X5wQmhtS8+C6whNMAqY4Y3odrVh+jeloMF8mNO00cHXlPCZaxiD7uaUbzANs3wmmAXB0bya5pqWI3pc5nS5CfYBExjN8EF3U9WVN79/dob1vsxiTj3XdZ0AaOnqUiLXUpljHOGvpXri6Wf1/puvOscR+w23P5n+lttPQzXmFmCeinLrzdeXlyRWFYTF2yZO8Ns0ndCgwYP9s8XmEX799PV82yP8Khb/kt+er51Gj/SbthUOh93KpPPoJ7HM+WKubrvzboUTEv02dWNKlkwYC750Eq2mbohnfPACrVtrCIn10ZKXu7nnrXVsA9UdrWp6iN/2jnAmLJocZcbQHEfDoQPNI/wWuhNzzww70zdP8bMExWWmwR3INmvuDbXLzE2168aMKeQEyFCozoWYLoJia7XtNgagtavrEaQ1iJdlbu75jP9toaajWEOCYsCMoTmOlNUFxWpSm5kl+2yZoGdKBRPqWJlh6hsSEa+C7aimCgBau/gPQ7BrC0exakoUgcZAEARQG609SMXT8jX3vMb3e7+9o1x1JYp1OTqaMTTH0bSOJYoAADQXcxi0VW1FW1veti3e3mmCIgCghWoLASp6+YLlbe3L3HbF4ztLUAQAtHDxHpwIfohf4eD6xPi+SgDNr6b/emvqBgBtke1zsbrPyVgekZv7s5tjRUvibnnOn/It0KmhRBH1EL1jm/qqFQA0plgGp8a2vc/KlrCsfI6jAkERdcQHCICmZsJSdNUWtLRl5bMeHoIiAACwICzC2QpyBw2OBNco9u/XT2VlLe/B2AAAAGg64XCCFixc6P174N5D0b2bIiWKAAAAsCMoAgAAwIqgCAAAACuCIgAAAKwIigAAALAiKAIAAMCKoAgAAAArJygGz3luaXeFBwAAQHNw06B/X203D/r1lCgCAADAiqAIAAAAK4IiAAAArAiKAAAAsCIoAgAAwIqgCAAAACuCYqMI+a8AAACtR0J2p07X+fXq2KGDIpEG3ksxY7AO/PnB2m3EjtpxR6/KTVmp70vH6rrbf6GyDz7QovZH6baHf6mtr0/XkiJ/uJammuX4bvlWvwdfyihd/Ng1GjDrVX2VcljFMhb43VsKszxH76eued/rp03Be5yiAfv9Qvt3Watvl23x21nkxMH7BQAA6i0UCmnDhg2mxvzK+evWN36JYlmWxhx7hEZ176IuXbyqQ1pYkS3zNH3ax1qY7/XW4svgqlkOK7NGHZWXMUf7XjRB5+/R3u0Wc2Z5fnmw+oXK/BZGWJ3GHKn9+6Vs9/1o8e8XAABodE1z6jm8RV++cK/uuecet3rig1XS1oWa8frHWlpNiVRCeid169ZJ6Yl+i5bAthy+xIzO6ta1g1IT/BZG+TI6OTycqJyBA5Sdkqb0lIS4Clo1vhehRKWkJivBCccpHbqpe6d0Ra8CAADQeoT9Z7WYJ7UEtY3CFGFW0vlw3fToH7VHht9cLlW5v7pFU56+VxNvmey8TtQxfVtOWgyFq2bpdA07bZKee2ay/jrxLj3011+pd5m/5oJlbNdTx97yN52S20l7/vYePXrTL9SrhSTFcEL08lSdqVq8F50P002PXKuLL/+7Hrprom576B96+oaj1KclBXwAAFBnQQ6syISRJipRLMvWPhferFtuuUW3/PVqHTeo+hSRmHuiLjsmT38/92SddeapuuSFdP3y9L2U5XePrR466roH9fDDD+vRx27TybmJzvwer98fvUH3n3OSzjj7TP36/sXqmFMlcEV+0ouX/15Pz1urD+88Tyf+8Z9a0pgpvN4qlser7tYFe7Yv3whq/V503EHZ/7vO6ecsnXrSlXqv1+k6c+8OfkcAANBaNE1QDG3QV/+dqpdfflkvT31LX2+Ivi6usq4jd1Lm5gwdePG1uu66q3T2TqlK7tVX2S2iBG6Z/nuPF3hvvukBvb2iVF2c+W3/5duaucZbpvx5n+jLdW6tVWlpiV/XEpjluckL8E418aZb9ezneQrenVq/F5vn6t2ZK1Vq6gt/0EefbVKPfjmcggYAoJVpoqBYprXffagZM2Y41Yf6ZnV1QdFcyxdW2crZeuU/L2nq1Kl66YUHNfGed7XG7yPWtq76UfPmzXOrFZulhARnfktKysOVEpKUFEcJaeuqBeXLM3/BEq0vCFJgHd6L0iIVluffBKWkJjrrpLRinQAAgFahaYJirUW05ofvVLbDUKUt/FyzZs3SrM/na+36jSq/g0uMJSQmuNdbelVEaxcsVHj0WI3KMgErpKxRB2iXbK/fyspUWhpSSnKy39zS1eG9yByuvXbMcq9wDHUYo4N3C+mrOUvLr20AAACtQ9MExTokhoIvntY97/fRH5/8p554+BE988/7NX5Uut81tiKhgTp18r/10ksv6aWpL+mJi8aobNaTun/WUP3piSl67NEn9Lcjy/T9StsCr9PcWeu18+/v1WMTf6neLeFUupnNbeajYt5r/V5sWKGMX92rpx97XM899Uf1eedOPfVlod8RAAC0FqHc3EHuLbbNjbb79++nSFlDTyCGlZSaLBUVqDh6VOa2KskhlRQVqzSU5NRLJYVOvZtTQkps31ld2ktb1q7VxsKWcBLTLEeqkqKidKQ4X/nFXtpK7dhNHcMbtWptvkIpKQqXFKioLGoZ3eUKK6VDZ2WWrNPqzbG+VtF7X0LO+1IUtXpDSWlKiRSooCQIjJb3Ihz1fnX+mW6fNFL/Gn+75qR1Ulr+Gq3eVExpIgAAccxcfrZgwcLyu9Z4Z1Kd18YOim+99ZZfV9lBBx3k18WH1rIcgeqWJ1qtli3HD4q/vlkfbPbbAQCAuNZsQRGtXM4RuvnWHfXyxbfqw01+OwAAENcIigAAALCqLijG+FvPAAAAaKnC7pcQvDJF9xcAAABtjBcI/Uxoar1cSIkiAAAArAiKAAAAsCIoAgAAwIqgCAAAACuCIgAAAKwIigAAALAiKAIAAMCKoAgAAAArgiIAAACsQgNzB0XM3bfNT/9+/VWS+Xu/EwAAANqCxLw7tWDhAoWcH/OQZ/PEZ/O8Z0oUAQAAYOUGxeDxfgAAAGijvMc7lzP1lCgCAADAiqAIAAAAK4IiAAAArAiKAAAAsCIoAgAAwIqgCAAAACuCIgAAAKwIigAAALAiKAIAAMDKfdazQ+Z5z/371/ys5x136KgLzxyqQQOzFDYPAYxS5ozix0V5uu/xb/X53LV+29anQ2ayLr9wpHYfk6OEBG8lFBSUqqS0zK2vjYSEsNJSEzT32/WaeM8XWrp8q98lfrAeAABoPdxnPS9Y4D3n2X/Ws1s/MDfXD4qqMSjukJulm6/cRXc+8JU++mylyqrkgVBY2nVUZ13mhIebJv1Ps+e0zrB48xW7aK9du/hN0pyv1+mSa2Y668M86MYuKSmsnt3S3frNW0q0dn2BO549d+mijXlFuuyGT/X9/I1u93jBemg5nP1YA/tlavCATGV3SHHbrdtQqB9+zNO8hXnmf0AAAGpkguKPTlA0xxQ3JrqBsQ6nnn992g667/FvNH3mCpWURlTmHH2iq1Kn3cezV+vmSV/oD+NHuCNvjUwJWrSVq/NrDEeGCUePTxrrVuNPG+IeuFesyne7ZWUm687rd9fggVluc7xgPcSeKY099biB+scDB+jhO/ZxS3jPPWWIW5n6h5x2zz1woNuP6RcAgLqqdVA0p52nz1zpN1Vv1pw1Ki4p01v/PFxvP1999doz43TTn3dWn57t/CHjQ3CatTFlpCfqtqt3Vc/uXmlbPGA9xNboHTvpibv3c0Nh185pftttdemc6vZj+jXDAABQF7UOiolOMCgqqt31Z2f+7n0d/KtpNVa/PPctfeaEyrtu2D3uwmJTMCVqV/x2lN/UdrEetu+gfXvo9mt3c0NgbZl+zTBmWAAAaqvJvvVc9dR01WrL1hL969VFeur5ee5pSHiltmA91MSUCl5x8Sj3H7e6MsOYYSlZBADUVqMExQP36eFed7a9083R1ZtOv2aY0pKIxozs7I8JQHXMdYZX1jMkBsywZhxcswgAqI0GB0UTEs85abBuv+9LHXKC/TSzrTrU6dcMc8LPByg1hYMWsD3HHdlvm9PNq9YU6JZ757gl89FfJjL1pp3pZvqJZsZhxgUAwPY0OCie/qtc9x545l545uBkO81srZx+g/vn1fgN6fQsHXTUAB07Ks27p48vsWdX/fKo7sqt/WVaTSKzfbJfV73Vaws04Y7P3erF1xa57dplJLqvdRFKzdBu4wbpovNH6NIzB+rg/kl+l9hr3eshWcMPdLbBkbHb2Mw+ctS4Pn5ThUf/8b2mvf2THnnme9329y+9fdCpTL1pZ7qZfqo6elzfWt+ZIDErS/sfvYMuvWCELj6hj8Z0rd0/dqHOvTThtpEayxfZASBu1fo+iuZ0sSkJNCEvmjndbEoSzcGpPsypsDf+7zAdeNxrfpsqUnN02d1jdEBktW7/82y9vd5rHe6dq4euTNW9l8zV54Veu+bw7otH+HUVFi7ZrJKS2t9oOhwOqX+f9tYD9f6/eNWvq6Jdji7962iNWrxEr87JV0LXbA1cM083vbxJtZ9y42lT6yG7l266YYgGrp2vS69dqGX129QbZFD/TPd2N1U9/cJ8PTzlO79JOvzAXu7ra05ADJxz8mCd9stcv6nCeX+YoR8W5PlNdlmjh+nOy3qodPYSvflNoVJ7d9XhY9P17YMzNeG9rTWv8/RMHeL0+/07K7SoMFVjzx2u4f+bo/s+K/Z7AAC0FA2+j2J13IN8Aw6c7o27tzd86WZ9Ni9DZ53aVR38VjYJaSnq3jVFGW6BR0hJKQlKDgo/nBlNTg6XL3AoMUGpiZaEUg/9erdTrnMgr201oK89HNUkY2gP7VW0UBNu/1bPvbZIzzz+uW4IwpEzsozsdPXolKQUdwGrLLuRkKC0pIqJVl5XjaO1roceu/dU7wXL9HVOTx3Uu8oMh8Jq50yze8dENdLmZDVoQKZfV9nJxw4oD4eGCYjRIdF0O+UXA/2myqobZ7l2XXThRd21+L4ZGn/Hd3ru1YV64oGZOvvG5ep71nAdbi4tTggrNTlU8UES3Zy/WdPfXaWfisxqCiunX3t1Sk5UutO9CVcVAKARlX++t2jOQfy7qd9pzrChGr+z7TRjggYdvauevW8v/fWqvfXs/bvq2N7p+tlfxurKPbxTookDBuuhx3bVz9zvzSRozNl76eZDqr//XEtTuHqr1ud00xGjUlTpZG1qJ11w+4F6dMIY3XDDWD1z4yANT0vTz6/ZT9fu4z2lwyzviFP21KTjOyjZuq7iYzMwmn09JLTTAfun6su3FurlWWHtu0+WM6wvM0e/u3V/PXTdzrr1jrG6bmwwncbXqaP9tLcplb3sghGVwmLAtDPdTD82wVNcqpM5oqfGbFykJz4sqFRyuPWbRfrXokwdOCZNif0H68FbB2mAv+oS+uTq/juGaLAJ3tm9dPOkkdozI0PHXb27Tu2fqr3O3VNP/KWfepEUASAuxE9C2LRaDz++3gl4Q7RzuneADCT1H6A/HVGsey95V6f/9h1dPDVRvzq+vb7/rEADRmQqXSH1HZ2pjUucgDjUOTgmttPOQ0v12RzvqSD1YR6RduxZb7qnSBtSmXGYcW1PycL5uvrv6zX60v313I1DdWBPvwgsXKwP7n1fJ100Q+dc/KleSeulwwcXavq7mzVw785yc3FqBx28W0TvT9+giHVddVF9LyOrzXo44Dh7++iqpa6HpP49dUi7NXrj63x9NWON0vbtpR39zNZ1zwHac8XXGn/xdJ129jua8GGR1yFOmGd51iSrS5pKf9qsNducXy7S0qUlyupk4rZje6EvskXPX/+xnlpQoA/un6FfXbtAS2Jw+h4AUHdh95JDp4r4Py2VmbP1M7/V5O876fzjs5UWNatdhndW+y2JOvjXO2nC5TvpnJEJSunRTgVfrFbhsBz1T87Q7qMimjljq3qOylT7rp00qmS1Zq6o//KuW1+o9RsbHgzMOMy4tq9MKz6cq3PPnaFJ32Xpotv31WW7JEtbN2lZRned+9tdNOmW0ToiJ6zU1LBWfvqT5vXpod2dhNRuWE+NWbtEbzpH5+rWVXY9S3hqsx4e/tu+evC2vXXWiYM0dFAH6+nmlrkeEjR83xwVfblRyUM6a3jSRs0qzNFhI7xS7XXfrtaa0Tvqtov6a5cuYRUXN93+Y56LbRN8cSX6dHPAtDN3Fqju+uHqxhmIOMMlJIa8MFhJSIlO++LCsjp/YpSWbpM6AQAtgJcBncr79Tg18VOi6M52oaY/+YOW7z1cJ+VWHNHDzlJEVq/Vy68t1kuvL9Z/pn6rmx5ertVLV+uT0mztulMX7VS0Wm99uEar+nbWHqOypTmrtbjUH0EciRRs0ftPzdSFj2/VPsf31rDdR2rS+Gytfv973TJhlqbM9xdqw2q99lWa9hvTQTvvm6n5b66UycXVrau13lBN4uvv1rtBsKQkokt+PVwP3Lq3Mts17JvKzbIeMjrpsN2Sldinl049PldnnNBH/UukUft1lrklePGiH3Xxb2bquXWd9Ps799PVezfdqecffrR/6WTKi/O3uSYx+jT0q2/9pGf+9aPfVNn31YwzsGbRJpUO6aKhGX6LQHJ77TwsrAUL8v1T0iEFBfwhpyaOPlQAANsRk8/0Iw/u7dfJ/Ra1KfWorcj6Zbp3ylYd9PMcJTgHbWP1/I0qy81S2pK1+uyLNfrsyzyt2VCsvJJN+mh2RDsd0klFs9do5Tqn+5aOOnKPZH37+SbF03cvOwzrpjHZYf8sX0hJSSGVFpUqq087lXy5RNO+yNPKxCzt1De4cq9Yn7+/Xl336a9xvfM0bZZXWlftuir/96HxfTxrtYqKS937+n08a5UGD8zSHdfvrvb1CIvNuR46ju6lXTYv0oSrPtbv/OrSvy3UquG9tXdnJ0dmpyptyya9/cws/eX5fA0elan0cKI6dUjw5q+6+nqYt9BZrjXbXiqxdMVWv67imsSq1ywuXb7Fr6tgxjXfGWdNCr5aqH8u66yLzu2pnsFblZCqPU8broM2LtTzX5aodHOhNmVmalBHs2Rh9R3dSV2qWcjS0pBSkomRABBPmv1TOxwKuaVK5jVgSj1qVCXErHrvaz2xMk19kr0OBV/N06SP2+nyyQfqqTvH6rlH99EFw01QKNO8/+Wp28hkfTVnqzOaAs3+X0RDum/WzKDEKU6EOnbTlfcdoqmPHqD/e/QgTT46oucfX6LPPl2hvLG76Kl7xurpa7opssxPz46tX/+kD9I6quPnS/S5nyeqX1dNZ9aXazRyaLZ+d+5wnXKcd5sWc7uXW/6yizLS6zbt5lsPTiA6oINWvL9Ci6POlpYuW65pC9pp3B4Z6rDHaP3jif31+J376c6jIpr2+jql7D1Sj/1thPZq5wTNaurrw1wiMvX1xX5ThbNPHKzDnFBoboETfHEl+IKLaWe6neX0U5UZV5U7XW2rdLNeuHW2pmUO0oOPH6znHzxQLz11gG7cu8hZ94v1o7OKIyuX6/kv2umCO/bT45P20SV9i9wS220VaO4Xhdrl/L305FX9VfXL4wCAlik0YGBuxBwxzI+5j2Jp5qV+p8qqu49ide2rYwLi68+N07gTXq/lMCElpYYVKipVUdQB29zeJi3RiX4FZeXfyExql6oc50C8ZX2hNhb64w6b23XIvZ6q1LQyt0cJl6mguH5XZAb3D5y3IE/n/mGGW99QD9+xj3u7GMN8saM64aQkZWcnKaGwSOs2lii4JM60N6VVW9cXqCCcoMTSUhX6OTiclKCksormgHVd1UFd18NvztjBfQpPVV99t16X3/Cp++zvP5y/o4461LupdOzXg9nuEhQuLtlmmLCz7SWHzDbkxMnMVGWnlGmjM/wWk01DYWWkOuPLd7bK6urryTx274m799vm6Sx1ZZ7UcsbF7ym/oMqC1SDJmfmczLAK80rV+6iddP2x6fp6ymzdNHWDNkfMbYnSlFlaqJWbI0pOiKioKKIyZ5lTnH2vxNlx3X3PWaepWalqX1Ko1Vvqvx4AAI0vIe9vWmDuo2jOfTlZzXzh0fxP32xBMShBdI4dmvbsOB120uuK+MeKmoa13di5qppCRWOLVVCsbj0057JHq896+N15w3Xs4X39pgp3PfiVXn/3JxU6geKaS0drvz27u9+UjrXtbXuxWPejd+yk26/drd7Pey5xEtsfr/9E/5vbkKtSQ0rLTldOmpS/fqtWb6153wcAtHwxDYpHHNRLfzh/hN/khMZwqNI3Me+4/8vtn35uIWIVFFua+q6HqmHx2X/9qKSksHu94sS7v1BSYljjTx+iex/9xu8DVR20bw9dcfGoOodFExLNOn5r+jK/DQAAnuqCYq2vUXRzYJXjkiklNO1NyKyJCYHmMX+mGnfiNOeAVea+Bu3iJSSi4SY99JX+M8271i4IibuM6qxPP1+ta/+wk4pLygiJ22GCnikVNKeQa8v0a4YhJAIA6qLWQfGn5Vvce+BFGzq4g9u+hsLEcqYE0auC5op28aTUu9iqSTTluBtbQ+bVhMVrb5tdHhKffn6e/njBCO29W1clO+2wfebUsbnO8KEp31m/DR0w3cyzoE2/DTvdDABoi2p9VH7yn/N0xcUjNXxIR/eU1447dNSVF4/S0y/Md0sWt1e1FjNnr3ZfO2QlKzV121sR15UZhxmXEYw7HjRkPZjLFN77aIU2bCwsD4mJiWHdeOf/VFTMlxxqy3wZZYqz/504/h339P+tk+e4odBUpt60M93MPlqXL64AABCo9TWKxoH79NDpv8pVrx4Zblh0TzvXpjjRccf9c/XKm0vcenMfxaA+3nTITNblF47U7mNyVFpmvt3ZsANwcnKCEsIhN3iZg/uGvPh4DFxD1sPipVv05xs/Vd7mYv38sD7ut6Hve/xbTZ+5wu8DAAA0pxq/zOKGPafqP6DmoAgAAIDWxwTFH390gmJUSDSBkQvCAAAAYEVQBAAAgBVBEQAAAFYERQAAAFgRFAEAAGBFUAQAAIAVQREAAABWBEUAAABYERQBAABgRVAEAACAFUERAAAAVqEBAwe6z3o2j3se0L+/3nr7Lb8TAAAA2oKDDjxIPy4wz3p2wqF50rP/zGdKFAEAAGBFUAQAAIAVQREAAABWBEUAAABYERQBAABgRVAEAACAFUERAAAAVgRFAAAAWBEUAQAAYEVQBAAAgFVYEb8OAAAAKBehRBEAAAB2BEUAAABYERQBAABgRVAEAACAFUERAAAAVgRFAAAAWBEUAQAAYEVQBAAAgBVBEQAAAFYERQAAAFgRFAEAAGAVdh/1bP5E3D+mCQAAAG2KkwFNFvR+PU4NJYoAAACwIigCAADAiqAIAAAAK4IiAAAArAiKAAAAsCIoAgAAwIqgCAAAACuCIgAAAKwIigAAALAiKAIAAMDKCYqRike1AAAAoM2qeHyflw8pUQQAAIAVQREAAABWBEUAAABYERQBAABgRVAEAACAFUERAAAAVgRFAAAAWBEUAQAAYEVQBAAAgBVBEQAAAFZh71kt5jEtPMoPAACgLTIZ0MuBFXUGJYoAAACwIigCAADAiqAIAAAAK4IiAAAArAiKAAAAsCIoAgAAwIqgCAAAACuCIgAAAKwIigAAALAiKAIAAMCKoAgAAACrsPs0v+CRfhWP9gMAAEBbEQRC8+u9uM2UKAIAAMCKoAgAAAArgiIAAACsCIoAAACwIigCAADAiqAIAAAAK4IiAAAArAiKAAAAsCIoAgAAwIqgCAAAACs3KAZPbQEAAEDbVREHvef4UaIIAAAAK4IiAAAArAiKAAAAsCIoAgAAwIqgCAAAACuCIgAAAKwIigAAALAiKAIAAMCKoAgAAAArgiIAAACsCIoAAACwKg+K3rP9eOAzAABAWxSJjoF+PSWKAAAAsCIoAgAAwIqgCAAAACuCIgAAAKwIigAAALAiKAIAAMCKoAgAAAArgiIAAACsCIoAAACwIigCAADAKuw9r4VH9wEAALRdQRZ0Xv1n+Zm/lCgCAADAiqAIAAAAK4IiAAAArAiKAAAAsCIoAgAAwIqgCAAAACuCIgAAAKwIigAAALAiKAIAAMCKoAgAAAArgiIAAACsvKDoPtIveMYfAAAA2pLypzv7cTBopkQRAAAAVgRFAAAAWBEUAQAAYEVQBAAAgBVBEQAAAFYERQAAAFgRFAEAAGBFUAQAAIAVQREAAABWBEUAAABYhcsf3Ffx1BYAAAC0NZUe3+ehRBEAAABWBEUAAABYERQBAABgRVAEAACAFUERAAAAVgRFAAAAWBEUAQAAYEVQBAAAgBVBEQAAAFYERQAAAFgRFAEAAGDlBkWe8QwAAAAvEzp/I14dJYoAAACwIigCAADAiqAIAAAAK4IiAAAArAiKAAAAsCIoAgAAwIqgCAAAACuCIgAAAKwIigAAALAiKAIAAMDKCYrmES0RHuMHAADQhm2TBZ0WlCgCAADAiqAIAAAAK4IiAAAArAiKAAAAsCIoAgAAwIqgCAAAACuCIgAAAKwIigAAALAiKAIAAMCKoAgAAACrqKAYsTy7BQAAAG2DCYIVYdDUUaIIAAAAK4IiAAAArAiKAAAAsCIoAgAAwIqgCAAAACuCIgAAAKwIigAAALAiKAIAAMCKoAgAAAArgiIAAACsCIoAAACwCvN8ZwAAgDYuyIP+456DRkoUAQAAYEVQBAAAgBVBEQAAAFYERQAAAFgRFAEAAGBFUAQAAIAVQREAAABWBEUAAABYERQBAABgRVAEAACAVdh9RIv/uBYAAAC0UX4WjI6ElCgCAADAiqAIAAAAK4IiAAAArAiKAAAAsCIoAgAAwIqgCAAAACuCIgAAAKwIigAAALAiKAIAAMCKoAgAAAArgiIAAACs3KDIY54BAABQORNGKFEEAACAHUERAAAAVgRFAAAAWBEUAQAAYEVQBAAAgBVBEQAAAFYERQAAAFgRFAEAAGBFUAQAAIAVQREAAABWTlDkAX4AAABtW3QeNPVO5fxSoggAAAArgiIAAACsCIoAAACwIigCAADAiqAIAAAAK4IiAAAArAiKAAAAsCIoAgAAwIqgCAAAACuCIgAAAKwIigAAALCqEhR57jMAAEDbVTkLUqIIAAAAK4IiAAAArAiKAAAAsCIoAgAAwIqgCAAAACuCIgAAAKwIigAAALAiKAIAAMCKoAgAAAArgiIAAACswt6TWiLuCw/wAwAAaHu8HBiVBJ1a00SJIgAAAKwIigAAALAiKAIAAMCKoAgAAAArgiIAAACsCIoAAACwIigCAADAiqAIAAAAK4IiAAAArAiKAAAAsCIoAgAAwCoqKPKkZwAAgDbNe+hzeSqkRBEAAABWBEUAAABYERQBAABgRVAEAACAFUERAAAAVgRFAAAAWBEUAQAAYEVQBAAAgBVBEQAAAFYERQAAAFh5QdF9TkvIrQUAAEAbVSUOUqIIAAAAK4IiAAAArAiKAAAAsCIoAgAAwIqgCAAAACuCIgAAAKwIigAAALAiKAIAAMCKoAgAAAArgiIAAACsooKi+xw/AAAAwEWJIgAAAKwIigAAALAiKAIAAMCKoAgAAAArgiIAAACsCIoAAACwIigCAADAiqAIAAAAK4IiAAAArAiKAAAAsCIoAgAAwIqgCAAAACniV1EIigAAALAiKAIAAMCKoAgAAAArgiIAAACsCIoAAACwIigCAADAiqAIAAAAK4IiAAAArAiKAAAAsCIoAgAAwCpc/qSWKo9sAQAAQNsTHQkpUQQAAIAVQREAAABWBEUAAABYERQBAABgRVAEAACAFUERAAAAVgRFAAAAWBEUAQAAYEVQBAAAgBVBEQAAAFYERQAAAFgRFAEAAFCFeeJzhKAIAAAAO4IiAAAArAiKAAAAsCIoAgAAwIqgCAAAACuCIgAAAKwIigAAALAiKAIAAMCKoAgAAAArgiIAAACsCIoAAACwIigCAADAiqAIAAAAK4IiAAAArAiKAAAAsCIoAgAAwIqgCAAAACuCIgAAAKwIigAAALAiKAIAAMCKoAgAAAArgiIAAACsCIoAAACQQv6ry2sgKAIAAMCKoAgAAAArgiIAAACsCIoAAACwIigCAADAiqAIAAAAK4IiAAAArAiKAAAAsCIoAgAAwIqgCAAAACsnKEb8WgAAALRZlkhIiSIAAACsCIoAAACwIigCAADAiqAIAAAAK4IiAAAArAiKAAAAsCIoAgAAwIqgCAAAACuCIgAAAKwIigAAALBygmLIq/NfAAAA0NZ5z/OjRBEAAABWBEUAAABYERQBAABgRVAEAACAFUERAAAAVgRFAAAAWBEUAQAAYEVQBAAAgBVBEQAAAFYERQAAAFgRFAEAAGBFUAQAAIAU8l+jhHr36RtRxPl1fgYOHKg7j7vf7wSgMRx9yzi/DgCAlmngoP6aP3++kxWdtBhy/rovIUoUAQAAYLdNieL8Hxb4nQAAANAWUKIIAACAOiEoAgAAwIqgCAAAACuCIgAAAKwIigAAALAiKAIAAMCKoAgAAAArgiIAAADKeU/y8/4SFAEAAGBFUAQAAIAVQREAAABWBEUAAABYERQBAABgRVAEAACAFUERAAAAVgRFAAAAWBEUAQAAYBXq3advRBHn1/kZOHCg5v+wwO+EphbuuJuOHNxXSaGQykrytHLpZ5q1fI2K/O6NKpSlEXucoO7fP6w31pb5LYHWp9d+Z+qo4alSpFRFG5Zo9rvv6PPlhX7XRpLUTXscf6qO3qmTtn4zTU9OeU+LC/xuQGsT6q69TztKI9uFpbIibVg4S++8+4VWNOo2n6hOIw/X8Ufvof5pa/TJc4/pxTkbxNGq+Qwc1F/z589XyPw4ucT5Y34pUYylSKSX9t1lL/Vpl6Oe3ffVycc/rEmH7ab2fvdGEeqgwSPH6/pz/64r9hiujLKI3wFonRJzj9Tphw5S9x79NfJnv9eTM97QrQdl+10bQ6r2uOIB/XnnLfrsndkq2u9GvfjA8erlPe0KaIWSNewX5+jwHbqpR/8ROvzSR/TOGxN1cGPuVgm5+tX4/ZX4wyf6eFEXnf30C7p6jwy/I2KJoBhrkeX6cPpkTZ76F13y9DPaNOQY7WmSYihFmZnd1SU9VQlen76QUtK6qmv7DCWEEpWSlBTVPaTktC7qlpmp5OCgFe6mkX0TNf3Vv+uDfL8d0MqVLXxVt119pX53ypE69va1OuTsQ9XdaZ+Qlq2efXqoU1rlvUrhVHXs2Vs9MpMUTk5XRnLUR6OzL3bo2Ue9slP9D8wSzX/4PP3y0vv04iv/1K1OaJw/4hDt1sntCLROoVL9OPUOXf2n3+v0I47XpPXjdNY4s1eFlZrdU317dVJGotdrIJzeSb2d/S3LOSAlpmQoLap7KDVbvfr0cvZFf18r/Vb3X/gH3fPcf/Tigzfq1mlh7TymJyEl5kK8By1JadFmFSpJSR2O1DW/eUJ/O/4aXXf2U7rv6APU2fQQ7qr9fvawHv31bbrmxMm6+4TrNfGcS7VLqtMt1El7jJush86ZqKtPfECPnHmhxqSbkX6r56dO1purtpoxAG1MibZs3KJQcrL6nPyIZnz0sp5+9Gn9d9Z7+vsx3Z2PQCc89vq57n7nI739z0c15Y03NOWxZ/XqrQcp0+kW7nqoJk6brv8++4ieeetDvTphrDo641y9bJXz15OQ1l7pheu1jlPPaCtK8pW3JaKk5J468ZF3Nf3lx/TglNc0c/q9OraHu1ep1zGT9N6sN/V/Tz6taW89rSf+/ar+elCW0y2sruMm6o2Pp2nK40/pzU9e1U37Vy6aDKXnaufhJZo7ZymnnlsAgmILkJDcQTnZI3T4Acepz8p39fnmxfrPs2fo3Id/owsfm6wfe/9Me3YIKWvIeJ3d9QNd//fTdeFDZ+v6r0vVNdkbR9YOF+i8btN1/X3n6MIHz9Ndy0fp5NEDqpRGAm1EYorad+yu3D1P01UXDNc3U9/T4i/v1S933UsHHHygDr3iS+1y2mHqpU464uo/a8i0c7TPXofogL1O0Qv53ZUWMZdodNKRE67WsFfP1r5jD9HY/f+grw6+QmcOiyoWSRmsM64/RZHnntZHm/12QCuV1K6zuvXK1Z5n/kUXjPxOL7+7VHPvPVF77XWoxu13uK6YM1qnjOsj5Ryha64doldP2Vt77n+g9jnp3yrq1c4Zg7NfOd0mTBiql08bq/0OPEAHXDJX+195usxulX3YrXp79izNfuUi6Z7xunHGFm/CiCmCYqyl7a2Lzn5QfzvpEo0tflET/vWKlq2fr/VdjtX5x9yi2048Q8NTUpWWmKZ+ffpq3bfvaV6xGbBMqxZ+qoVufZoG9O2v4pJBOuHoa3TFsZfq0OwkdczpLlOoCLQlkVBIncfdotfee1nP3nKUtt5/us57apFWLNyq0b+eoPue/bee+/Oeap+WptR2w7TP6Dy98Z8v5B6Sypbp4/e+V4G5gjtjuMaODKls5EW6+6H79eDtJ6hXSZYG9TMHPOeg2etw3fyfR3TY7Et1xqQ5auSvywAtSllZB427+UVNe/lpTTxqix44+dd6ctEKLcrfSeNvnKxnpj6jP++ZqfR055+0YXtp5LrX9e8vvDNZpT99oLe/MfUhtRs+ViNKizT84rv0oLNf3XpSL5Vm5aq/s1utf+9mnXTkMTr+z/9Vl0uf0SNn9qewowUgKMZa/geadP/xOm3yObritVc0vzBRffe4SdfsnKa5n/5dE/8xSTPcfS2kpIQElZYWm//JXKFwkpL8dzDsHNi2rpiu1z5/2as+vEd3zfyOgxfanFAkojWvXKp9Ru6sXfc7Xpc9PVebE3bQBVMe19lZn+iRay7QGVe9qjVhZ+cJJzv7ULGKisv3KiUlpzgfjE5zKKxwwiZ9/uITeuqpKW5171V/0iNzi5U8+Aw9+tx52nTjsTrpjk+0PhgcaKXC4Q2a9vsDNXr0Htr/uD/pqTmblbjDbzTlqTOU8fEjuubcM3XV1GUqcvaFcFKyQoWFqtitkpSaYkriTcewQpu+0IsPP+ntV09O1l8ufVRzS52u+Ru0cvkS/TDz/zTxzk814OcHqKc3BsQQQbHFSVevbp208rtp+mDpYm3J2knD3C9+5WvpqrXqNnhP9XH/xUpSnyF7q69bn68ly1cqp1cP5S2Zrf8tnK0vlq5SXsHGprnVDtDiVUlu7Qdqxx5L9OqU1/TZD+uVs8to5ZjTy1vm66slPXTwYUOUYvpLzHXqBynZDL75e82al6PdBm/WZ+9P1/T3Z2jW0rVavzpTv7jqVOX99Te6dcYalTn/pLm3kgBauZLS4MpcT+agHdV18St65pXZmrexi3bZpbeSnWPSlvlfa2mfQ3T4EO/aqOTBh+nwoV79lu9na0G33TR062xnnzL71WdasnqVVmYO1445wWUdGcod2UcFCxZro98GsUNQbHHyNPfrL9V1/0m6/9xHdNcBPbR+kzlqRbR8zkOaWnKs/nrho5o8/hH9rstqLXJPPUur5j6g57Ycrpt/+6Qmn/OIHr/gGh3cIepaKqAtW/+R/v1eV/3xpTf15vRpuqr/Wq0x4S6yUP+Y8LhKx7+oT2b8V9M/uEujV/7gnXrWMr0wYbLWnfIPffLh65r23kf64KFfqHtKLw3u30eH3Pq25n4zV187++s3P3ymR4/r4k0LaCPWffQffdD9cr38/ht6/+2rNXDlEhWVSmUL/qEJD5XovJc+1vR33tG7dw7Tsm/MRbwhRX56QdfftV6nPP+xPnz7Nb07a4YeOr63Etvvr4nvfqKP3p6mdz55Xw+M/Z9uvOVtgmILwA23YymcrFTnv6/i4iI5+1YlCckdlZ1aqo2bNqksMVXh0nwVuV//SlRG+xxllK5XXtYpuu2oBN37yIP6zh1BWKkZXdQxqVAb8zZoa6V7JoaVlJSiUPl4gNYplJSu9FCBtmyzoTv7Tk53dSxbraXO0SctoUT5hSVu2WMoOUvdurVT4aq16nPRc7o56Tr9fOLncv8PS0hX5x5dlF64VstXb1JxJEFJ6alKSahciliav1n5lQtcgFbC3N4mXUmlW7bdxhMz1KVbB5WtW6ENZalKdo4xW4u9fS8pq7u6tyvQqlU9dPG0e5Ry2TjdMNsr3UjIyFHPnHQVrl2qVZu8/TCcmqUuXbKVkr9KS9dsUUn0IQxNzn7DbW6PE1tlRSqwhESjtGi9VuflqcgJ8SXFXrhL7XGojh7cV2klm5SfNFg/GztWpd/P0ILyEZSpYMsKLd+wvkpINMqcQEpIROsXKd5qCYlGibasXqKf1hYoUlKgrW5ITNaIY87Qwbnpyl+/Wek7n6M/nZyuD9/81guJRulWrVmyUItXmZDotlDx1i3avGlzpYqQiNbLOQ4VWkKiUbJFq35aqjVbS1VSsMULiakjdeyZB2lAar7Wb0rXmN9cqRNC/9VrX5fvVSrdslqLFy7SSj8kGmUFG7Vi8QItWk1IbEkIinGkrCSk3jtfrlvOeVj3njReg5beoxvf/5rrEIF6K1N+4hCde+/zeuv9/+q5q0bqs0tP1y2fcnd6oN7KCpQ49Fzd99Ibev/df+iqEZ/pj6feps+412hc4tQzAABAG1ftqWf3KpvKl9oAAACgDQuiIaeeAQAAYEVQBAAAgBVBEQAAAFYERQAAAFgRFAEAAGAVFRTNF6IBAADQZpkwGBUIw6RDAACAts3Lh9uGwnDw7BzTqaS0VImJiV4LAAAAtHom+5WU2B4oXF6i6CXIwoJCJaemuPUAAABo/Uz2KygMnrHolyo6L6bOvUbRb6XCokKlJif5TQAAAGjtTPYrKixy671MWBEWnaBY0bB502Z16NhBSUmcfgYAAGjtTOYz2W/z5s3lkdDjNXjfevY7FBcXa926deqU08lrAQAAgFbLZD6T/UwGdDmZsCIvhhQOuU3mj9d6w8YNbstu3btSsggAANAKmYxnsp7JgRvzNrrtvG89O5X36wr17dcvEjHffHb+uD/+t6CzsjKVnZ2tjes3qqCwyD13XVJS4nUEAABAXDHfbk5OSVaqU2V1zHJLEvM25nkd3XBo/jh/3cpr6QTF/k5QdJOiFxKjAqNJm+3btfdHmqqEBP9uOn6YtKuxY43qPWT9J9kAzT/R+FrMmMxts2sjm56jbbyfsRH8397KxWAx28iaddRzSdvMe9L8U/VCVnOrYaJOJ9PV3AKnsLBAhUVF7jWJxcUl7rxWBMToer+5nwmKzkHADYvm1w+K3m9Ue+9P+Wt13O71Vc9BYzHNhqj3/NZ7Xuu/kDFYPfH1nsSbNrKY2A7nwx/Vcw+Uza0Bk6z/oPGznLF4T0xQanYNmGSN68jp5HYPwp/Xwn11l7O8XXR3v74iKJoxmVenxv2tXL/NazXcYZpbAyZZ07LUKCaL2QbmtSFiMMmGiMk6AmLEPfC0BfVczIatnZhMtF5ish3Ue/U0YF5b2DTd8bq/0a/O3+h2pjlob4ZxOzr1/fr3d49XlUoS3XpHdDvz47V0f6vjD1k/9Ry0rUyzvho0r/UVg0k2ZKJxNrtoIrHYV7yPZFQrBqunYZOs59BxtBnEZJttwCTrPb+taZpuJ6cP59Xtr/w1up1X7zaZerfWee3Xf4Dz2Wg+Ht0X55PSq/d+K16rli5Wx+3e3BowyXrPb0wWsw3Ma0PEYJINmWhMZretiKeV634at36xWcwYTDUmk2zmiTZgcs0+r0Y9J9mgeY3FNGviB79tTjO73bzm6k5Be0HR+VQNSgu3Od3sBkfTybwG3Wrgjahe/Ck1r3pOskHz2syLGU/z2hAx2X4aIs5mt/7azII2M+dTvC2Is8V0D7LNrZknGW/LWO/5jbNp1jSw28X5485XVAis2s5tMvVurdcu1H/AADcbekHQvLh/vbznt/NenTr313utjj9E/dRz0AZNs74atJjNPL8xWT3x9Z7UV0yWE00nFm+n+4mM6viHrPgRg9lt9nUUb8tYz0Fjsu15aa1eahzS6eguj/l1p+EvnR8G3WZTH9XObQqF9P9qtM7xR4bhogAAAABJRU5ErkJggg==;" vertex="1" parent="1">
          <mxGeometry x="1326.5" y="240" width="650" height="524" as="geometry" />
        </mxCell>
      </root>
    </mxGraphModel>
  </diagram>
</mxfile>
